# vtk DataFile Version 2.0
Geometry from FC file
ASCII
DATASET UNSTRUCTURED_GRID

POINTS 1022 float
-4.793408e-11 4.793408e-11 1.000000e+00
-4.793408e-11 4.793408e-11 -1.000000e+00
1.194000e-01 -5.351388e-05 9.928462e-01
1.151008e-01 2.116605e-03 -9.933516e-01
1.183562e-01 1.175040e-01 9.859942e-01
1.137242e-01 1.169856e-01 -9.866008e-01
1.012298e-03 1.171629e-01 9.931122e-01
-1.988122e-03 1.166911e-01 -9.931663e-01
-1.139757e-01 1.170690e-01 9.865619e-01
-1.202221e-01 1.164431e-01 -9.858943e-01
-1.152440e-01 2.137139e-03 9.933349e-01
-1.202492e-01 -1.138558e-03 -9.927431e-01
-1.169168e-01 -1.157294e-01 9.863758e-01
-1.203719e-01 -1.199470e-01 -9.854559e-01
1.075620e-03 -1.185942e-01 9.929422e-01
-8.960560e-04 -1.196417e-01 -9.928167e-01
1.194596e-01 -1.186613e-01 9.857225e-01
1.163320e-01 -1.155550e-01 -9.864654e-01
1.139600e-01 2.281734e-01 -9.669281e-01
-1.438361e-03 2.301981e-01 -9.731427e-01
-1.190446e-01 2.293463e-01 -9.660376e-01
-2.357518e-01 2.268069e-01 -9.449760e-01
-2.380753e-01 1.139033e-01 -9.645446e-01
-2.386678e-01 -2.669488e-03 -9.710976e-01
-2.380310e-01 -1.196005e-01 -9.638656e-01
-2.362600e-01 -2.353807e-01 -9.427498e-01
-1.206182e-01 -2.366330e-01 -9.640830e-01
-2.937364e-03 -2.360349e-01 -9.717401e-01
1.144717e-01 -2.311922e-01 -9.661503e-01
2.296879e-01 -2.216566e-01 -9.476876e-01
2.301841e-01 -1.069018e-01 -9.672576e-01
2.272550e-01 6.777983e-03 -9.738117e-01
2.228501e-01 1.166822e-01 -9.678446e-01
2.250017e-01 2.236514e-01 -9.483429e-01
2.280999e-01 3.295088e-01 -9.161847e-01
1.155583e-01 3.359773e-01 -9.347543e-01
4.437439e-04 3.380810e-01 -9.411169e-01
-1.145440e-01 2.288425e-01 9.667010e-01
-3.631322e-04 2.309015e-01 9.729771e-01
1.159981e-01 2.305035e-01 9.661328e-01
2.312543e-01 2.291248e-01 9.455280e-01
2.343815e-01 1.159762e-01 9.652020e-01
2.355265e-01 -2.777454e-04 9.718679e-01
2.353322e-01 -1.174472e-01 9.647927e-01
2.340061e-01 -2.330811e-01 9.438826e-01
1.193133e-01 -2.356818e-01 9.644783e-01
1.857630e-03 -2.355302e-01 9.718652e-01
-1.156533e-01 -2.311884e-01 9.660105e-01
-2.320784e-01 -2.215778e-01 9.471235e-01
-2.311601e-01 -1.067262e-01 9.670442e-01
-2.269951e-01 6.943900e-03 9.738712e-01
-2.223958e-01 1.172432e-01 9.678813e-01
-2.245378e-01 2.244171e-01 9.482720e-01
-2.273834e-01 3.306686e-01 9.159449e-01
-1.163877e-01 3.370884e-01 9.342512e-01
-2.748235e-03 3.392623e-01 9.406878e-01
-1.159232e-01 3.372568e-01 -9.342482e-01
-2.313588e-01 3.347007e-01 -9.134816e-01
-3.437407e-01 3.299199e-01 -8.792015e-01
-3.497597e-01 2.222130e-01 -9.101042e-01
-3.525560e-01 1.099924e-01 -9.293040e-01
-3.528199e-01 -4.575020e-03 -9.356801e-01
-3.511428e-01 -1.200264e-01 -9.285970e-01
-3.476528e-01 -2.334331e-01 -9.081005e-01
-3.420987e-01 -3.433831e-01 -8.746751e-01
-2.332531e-01 -3.475208e-01 -9.081973e-01
-1.200632e-01 -3.498738e-01 -9.290711e-01
-4.162774e-03 -3.491040e-01 -9.370747e-01
1.118868e-01 -3.438891e-01 -9.323206e-01
2.266724e-01 -3.339634e-01 -9.149252e-01
3.380380e-01 -3.185276e-01 -8.855905e-01
3.413363e-01 -2.057376e-01 -9.171486e-01
3.397618e-01 -9.197616e-02 -9.360034e-01
3.307728e-01 1.796346e-02 -9.435394e-01
3.207432e-01 1.163164e-01 -9.399970e-01
3.286579e-01 2.114635e-01 -9.204712e-01
3.370135e-01 3.148783e-01 -8.872843e-01
3.373644e-01 4.194805e-01 -8.427464e-01
2.281250e-01 4.325877e-01 -8.722539e-01
1.163452e-01 4.385449e-01 -8.911465e-01
2.540968e-03 4.399271e-01 -8.980299e-01
1.121918e-01 3.391345e-01 9.340240e-01
2.260828e-01 3.379327e-01 9.136127e-01
3.366540e-01 3.353120e-01 8.799034e-01
3.430244e-01 2.268612e-01 9.115198e-01
3.464298e-01 1.146160e-01 9.310476e-01
3.476120e-01 -3.923712e-04 9.376384e-01
3.469943e-01 -1.158177e-01 9.306886e-01
3.445334e-01 -2.295001e-01 9.102892e-01
3.402181e-01 -3.392355e-01 8.770239e-01
2.318838e-01 -3.452927e-01 9.093970e-01
1.191559e-01 -3.486433e-01 9.296503e-01
3.273470e-03 -3.486798e-01 9.372362e-01
-1.139041e-01 -3.440005e-01 9.320351e-01
-2.301333e-01 -3.340935e-01 9.140132e-01
-3.438443e-01 -3.183592e-01 8.834130e-01
-3.450164e-01 -2.050290e-01 9.159295e-01
-3.410475e-01 -9.100219e-02 9.356309e-01
-3.304496e-01 1.937328e-02 9.436248e-01
-3.195923e-01 1.174382e-01 9.402495e-01
-3.266803e-01 2.127740e-01 9.208731e-01
-3.344838e-01 3.163152e-01 8.877304e-01
-3.346645e-01 4.208432e-01 8.431433e-01
-2.276139e-01 4.340849e-01 8.716434e-01
-1.174706e-01 4.404153e-01 8.900758e-01
-5.418296e-03 4.421558e-01 8.969219e-01
-1.114960e-01 4.389090e-01 -8.915871e-01
-2.243717e-01 4.363920e-01 -8.713319e-01
-3.347952e-01 4.320612e-01 -8.373979e-01
-4.410545e-01 4.241175e-01 -7.909458e-01
-4.518637e-01 3.219416e-01 -8.319692e-01
-4.583154e-01 2.147966e-01 -8.624438e-01
-4.609804e-01 1.041826e-01 -8.812735e-01
-4.605544e-01 -8.624502e-03 -8.875896e-01
-4.579017e-01 -1.212836e-01 -8.806908e-01
-4.528671e-01 -2.320509e-01 -8.608506e-01
-4.448036e-01 -3.389117e-01 -8.290287e-01
-4.338603e-01 -4.403473e-01 -7.860404e-01
-3.344849e-01 -4.480541e-01 -8.290762e-01
-2.287387e-01 -4.544260e-01 -8.609156e-01
-1.182456e-01 -4.575186e-01 -8.813028e-01
-4.943094e-03 -4.566268e-01 -8.896446e-01
1.091288e-01 -4.516524e-01 -8.854948e-01
2.220441e-01 -4.415933e-01 -8.693053e-01
3.320043e-01 -4.266238e-01 -8.412879e-01
4.369841e-01 -4.073555e-01 -8.019391e-01
4.446774e-01 -2.983635e-01 -8.445361e-01
4.480563e-01 -1.838052e-01 -8.749064e-01
4.428477e-01 -6.923829e-02 -8.939195e-01
4.264169e-01 3.949927e-02 -9.036639e-01
3.923570e-01 1.144766e-01 -9.126615e-01
4.239512e-01 1.861903e-01 -8.863400e-01
4.393234e-01 2.900789e-01 -8.502054e-01
4.422793e-01 3.975452e-01 -8.039570e-01
4.342789e-01 5.026197e-01 -7.475127e-01
3.308711e-01 5.207653e-01 -7.869738e-01
2.238952e-01 5.310671e-01 -8.172139e-01
1.145219e-01 5.348135e-01 -8.371734e-01
4.103998e-03 5.345920e-01 -8.451003e-01
1.073300e-01 4.420200e-01 8.905608e-01
2.187429e-01 4.409717e-01 8.704571e-01
3.273560e-01 4.385136e-01 8.369850e-01
4.315705e-01 4.328472e-01 7.914482e-01
4.422596e-01 3.301261e-01 8.339204e-01
4.490970e-01 2.227559e-01 8.652697e-01
4.525698e-01 1.117067e-01 8.847046e-01
4.535859e-01 -1.428801e-03 8.912114e-01
4.525341e-01 -1.143558e-01 8.843843e-01
4.491707e-01 -2.255408e-01 8.645097e-01
4.429505e-01 -3.328519e-01 8.324689e-01
4.342242e-01 -4.340855e-01 7.893156e-01
3.346762e-01 -4.436370e-01 8.313712e-01
2.291895e-01 -4.512306e-01 8.624750e-01
1.187353e-01 -4.557983e-01 8.821280e-01
4.769205e-03 -4.561371e-01 8.898967e-01
-1.107712e-01 -4.518670e-01 8.851813e-01
-2.254164e-01 -4.424566e-01 8.679975e-01
-3.386847e-01 -4.273855e-01 8.382329e-01
-4.477823e-01 -4.071637e-01 7.960583e-01
-4.538104e-01 -2.965199e-01 8.403166e-01
-4.532966e-01 -1.810861e-01 8.727714e-01
-4.441912e-01 -6.569555e-02 8.935202e-01
-4.251483e-01 4.266927e-02 9.041174e-01
-3.903764e-01 1.166499e-01 9.132355e-01
-4.204732e-01 1.885784e-01 8.874911e-01
-4.343635e-01 2.922192e-01 8.520189e-01
-4.371778e-01 3.986943e-01 8.061752e-01
-4.303230e-01 5.027181e-01 7.497310e-01
-3.292585e-01 5.217747e-01 7.869816e-01
-2.240627e-01 5.331267e-01 8.158259e-01
-1.164581e-01 5.376454e-01 8.350898e-01
-7.428236e-03 5.380886e-01 8.428555e-01
-1.063287e-01 5.326916e-01 -8.396034e-01
-2.158339e-01 5.306655e-01 -8.196401e-01
-3.231261e-01 5.272668e-01 -7.858621e-01
-4.263967e-01 5.201373e-01 -7.400291e-01
-5.247152e-01 5.070306e-01 -6.838084e-01
-5.411979e-01 4.108260e-01 -7.337076e-01
-5.530111e-01 3.091955e-01 -7.736775e-01
-5.596332e-01 2.036180e-01 -8.033370e-01
-5.615986e-01 9.500376e-02 -8.219375e-01
-5.602065e-01 -1.473863e-02 -8.282219e-01
-5.567095e-01 -1.239878e-01 -8.214022e-01
-5.500699e-01 -2.314577e-01 -8.024029e-01
-5.396206e-01 -3.352775e-01 -7.722685e-01
-5.254139e-01 -4.336018e-01 -7.320722e-01
-5.080401e-01 -5.253401e-01 -6.825783e-01
-4.205609e-01 -5.349945e-01 -7.327410e-01
-3.250272e-01 -5.456260e-01 -7.724310e-01
-2.228877e-01 -5.539224e-01 -8.021789e-01
-1.156261e-01 -5.577442e-01 -8.219197e-01
-5.469058e-03 -5.571838e-01 -8.303712e-01
1.059552e-01 -5.521561e-01 -8.269807e-01
2.164910e-01 -5.423806e-01 -8.117604e-01
3.240756e-01 -5.276856e-01 -7.851897e-01
4.269346e-01 -5.086153e-01 -7.476879e-01
5.234215e-01 -4.868970e-01 -6.992576e-01
5.353400e-01 -3.862490e-01 -7.511477e-01
5.443401e-01 -2.768279e-01 -7.918713e-01
5.483965e-01 -1.620270e-01 -8.203709e-01
5.439734e-01 -3.736327e-02 -8.382702e-01
5.219898e-01 1.102656e-01 -8.457944e-01
5.424445e-01 2.526466e-01 -8.012014e-01
5.431559e-01 3.719875e-01 -7.527330e-01
5.324049e-01 4.802483e-01 -6.970700e-01
5.126415e-01 5.788869e-01 -6.341046e-01
4.182262e-01 6.006590e-01 -6.813924e-01
3.180767e-01 6.157834e-01 -7.208592e-01
2.144068e-01 6.229802e-01 -7.522801e-01
1.090353e-01 6.235675e-01 -7.741284e-01
3.551327e-03 6.203924e-01 -7.842836e-01
1.016879e-01 5.372973e-01 8.372402e-01
2.096313e-01 5.366445e-01 8.173539e-01
3.150033e-01 5.348550e-01 7.840300e-01
4.167378e-01 5.296173e-01 7.388066e-01
5.134568e-01 5.187979e-01 6.835283e-01
5.295707e-01 4.225620e-01 7.355245e-01
5.409723e-01 3.210589e-01 7.773482e-01
5.479025e-01 2.152650e-01 8.083711e-01
5.510990e-01 1.063695e-01 8.276324e-01
5.516115e-01 -3.702989e-03 8.340929e-01
5.503857e-01 -1.138301e-01 8.271145e-01
5.463538e-01 -2.219895e-01 8.076003e-01
5.385584e-01 -3.263723e-01 7.768114e-01
5.269590e-01 -4.250091e-01 7.359901e-01
5.128847e-01 -5.163628e-01 6.857979e-01
4.242411e-01 -5.278638e-01 7.357848e-01
3.282990e-01 -5.398200e-01 7.751220e-01
2.260717e-01 -5.494332e-01 8.043723e-01
1.184132e-01 -5.550470e-01 8.233475e-01
6.958592e-03 -5.563606e-01 8.309118e-01
-1.055793e-01 -5.527688e-01 8.266194e-01
-2.184224e-01 -5.439081e-01 8.102195e-01
-3.290276e-01 -5.296127e-01 7.818255e-01
-4.364209e-01 -5.106980e-01 7.407593e-01
-5.384562e-01 -4.880966e-01 6.868964e-01
-5.520820e-01 -3.828672e-01 7.406877e-01
-5.577197e-01 -2.706102e-01 7.846776e-01
-5.551512e-01 -1.524148e-01 8.176655e-01
-5.446706e-01 -2.909397e-02 8.381453e-01
-5.170713e-01 1.158018e-01 8.480726e-01
-5.336998e-01 2.591463e-01 8.049892e-01
-5.338557e-01 3.756538e-01 7.575502e-01
-5.251638e-01 4.797040e-01 7.029133e-01
-5.088245e-01 5.759544e-01 6.398235e-01
-4.168589e-01 5.993152e-01 6.834105e-01
-3.184237e-01 6.163423e-01 7.202281e-01
-2.161771e-01 6.254733e-01 7.497003e-01
-1.122883e-01 6.273569e-01 7.705937e-01
-7.941066e-03 6.252861e-01 7.803552e-01
-1.015095e-01 6.170652e-01 -7.803373e-01
-2.055999e-01 6.159662e-01 -7.604698e-01
-3.076262e-01 6.145005e-01 -7.264677e-01
-4.074376e-01 6.090526e-01 -6.804774e-01
-5.033966e-01 5.967673e-01 -6.248685e-01
-5.941674e-01 5.758026e-01 -5.616194e-01
-6.161934e-01 4.863657e-01 -6.194790e-01
-6.338121e-01 3.909323e-01 -6.674235e-01
-6.460653e-01 2.909334e-01 -7.056610e-01
-6.523150e-01 1.874632e-01 -7.343996e-01
-6.530047e-01 8.219890e-02 -7.528799e-01
-6.500683e-01 -2.321759e-02 -7.595210e-01
-6.458083e-01 -1.285121e-01 -7.526063e-01
-6.381349e-01 -2.320453e-01 -7.341246e-01
-6.254077e-01 -3.323450e-01 -7.059830e-01
-6.075201e-01 -4.274135e-01 -6.695051e-01
-5.866278e-01 -5.150030e-01 -6.250118e-01
-5.673014e-01 -5.956832e-01 -5.686217e-01
-4.884798e-01 -6.100351e-01 -6.238948e-01
-4.048476e-01 -6.220524e-01 -6.701859e-01
-3.146212e-01 -6.345031e-01 -7.059882e-01
-2.164730e-01 -6.449759e-01 -7.329021e-01
-1.129505e-01 -6.494100e-01 -7.520032e-01
-5.902647e-03 -6.488211e-01 -7.609181e-01
1.024087e-01 -6.441173e-01 -7.580405e-01
2.098936e-01 -6.347047e-01 -7.437033e-01
3.145130e-01 -6.197219e-01 -7.190455e-01
4.148143e-01 -6.000458e-01 -6.840133e-01
5.088116e-01 -5.779849e-01 -6.380001e-01
5.955948e-01 -5.550445e-01 -5.806827e-01
6.119958e-01 -4.645281e-01 -6.400584e-01
6.244210e-01 -3.659401e-01 -6.900625e-01
6.351494e-01 -2.590284e-01 -7.276603e-01
6.419514e-01 -1.446406e-01 -7.529791e-01
6.437962e-01 -2.469396e-02 -7.647985e-01
6.404933e-01 1.049677e-01 -7.607563e-01
6.432999e-01 2.328749e-01 -7.293384e-01
6.382925e-01 3.505533e-01 -6.853430e-01
6.230592e-01 4.593989e-01 -6.330481e-01
5.969207e-01 5.601970e-01 -5.743388e-01
5.646249e-01 6.445435e-01 -5.155214e-01
4.868335e-01 6.671668e-01 -5.638099e-01
3.965861e-01 6.895091e-01 -6.060500e-01
2.989185e-01 7.029105e-01 -6.454181e-01
1.984218e-01 7.068102e-01 -6.790053e-01
9.823467e-02 7.032335e-01 -7.041396e-01
-2.288673e-04 6.959002e-01 -7.181385e-01
9.589264e-02 6.231048e-01 7.762377e-01
1.984292e-01 6.233784e-01 7.563235e-01
2.988753e-01 6.234577e-01 7.224778e-01
3.973451e-01 6.194355e-01 6.770647e-01
4.921567e-01 6.086336e-01 6.223720e-01
5.821847e-01 5.895440e-01 5.599097e-01
6.034747e-01 5.009849e-01 6.203487e-01
6.200091e-01 4.064129e-01 6.711313e-01
6.317245e-01 3.068434e-01 7.118787e-01
6.382934e-01 2.036634e-01 7.423629e-01
6.404724e-01 9.829633e-02 7.616646e-01
6.400267e-01 -8.014427e-03 7.683108e-01
6.389584e-01 -1.140095e-01 7.607457e-01
6.350054e-01 -2.184652e-01 7.409731e-01
6.260528e-01 -3.196200e-01 7.112672e-01
6.118157e-01 -4.151778e-01 6.732822e-01
5.942692e-01 -5.032179e-01 6.273881e-01
5.785055e-01 -5.839546e-01 5.694984e-01
4.976022e-01 -5.999313e-01 6.264779e-01
4.130670e-01 -6.118407e-01 6.745566e-01
3.218138e-01 -6.267242e-01 7.096849e-01
2.232479e-01 -6.385755e-01 7.364657e-01
1.188099e-01 -6.455929e-01 7.543832e-01
1.041759e-02 -6.476434e-01 7.618724e-01
-9.939062e-02 -6.449788e-01 7.577096e-01
-2.089958e-01 -6.367126e-01 7.422384e-01
-3.163608e-01 -6.229057e-01 7.154749e-01
-4.198087e-01 -6.049287e-01 6.766254e-01
-5.178074e-01 -5.848193e-01 6.243892e-01
-6.103242e-01 -5.595110e-01 5.607600e-01
-6.343552e-01 -4.606369e-01 6.208116e-01
-6.489638e-01 -3.548740e-01 6.729863e-01
-6.536457e-01 -2.434723e-01 7.165672e-01
-6.492355e-01 -1.282971e-01 7.496887e-01
-6.397323e-01 -9.577684e-03 7.685381e-01
-6.304530e-01 1.156028e-01 7.675708e-01
-6.301261e-01 2.412761e-01 7.380562e-01
-6.247294e-01 3.536778e-01 6.961503e-01
-6.117564e-01 4.585867e-01 6.445560e-01
-5.902891e-01 5.558853e-01 5.852780e-01
-5.639317e-01 6.374793e-01 5.249774e-01
-4.878766e-01 6.618232e-01 5.691806e-01
-3.993089e-01 6.863982e-01 6.077909e-01
-3.026107e-01 7.030148e-01 6.435813e-01
-2.029201e-01 7.098949e-01 6.744425e-01
-1.033407e-01 7.082659e-01 6.983410e-01
-5.622853e-03 7.022300e-01 7.119280e-01
-9.751785e-02 6.916417e-01 -7.156271e-01
-1.922917e-01 6.912201e-01 -6.965908e-01
-2.873392e-01 6.930235e-01 -6.611766e-01
-3.819140e-01 6.904989e-01 -6.142907e-01
-4.754677e-01 6.797243e-01 -5.584849e-01
-5.657908e-01 6.588400e-01 -4.957929e-01
-6.507263e-01 6.272632e-01 -4.278974e-01
-6.780395e-01 5.453374e-01 -4.928180e-01
-6.993552e-01 4.578233e-01 -5.489081e-01
-7.172723e-01 3.644227e-01 -5.938994e-01
-7.297721e-01 2.664536e-01 -6.296310e-01
-7.352515e-01 1.657843e-01 -6.572069e-01
-7.338190e-01 6.497462e-02 -6.762308e-01
-7.295709e-01 -3.525747e-02 -6.829958e-01
-7.245734e-01 -1.337093e-01 -6.761030e-01
-7.162899e-01 -2.335048e-01 -6.575746e-01
-7.010018e-01 -3.312617e-01 -6.315553e-01
-6.786471e-01 -4.231957e-01 -6.002862e-01
-6.546949e-01 -5.019167e-01 -5.652028e-01
-6.396674e-01 -5.722993e-01 -5.131269e-01
-6.175924e-01 -6.465845e-01 -4.477814e-01
-5.395080e-01 -6.733977e-01 -5.054371e-01
-4.623527e-01 -6.871356e-01 -5.604236e-01
-3.876581e-01 -6.951439e-01 -6.053892e-01
-3.049087e-01 -7.113383e-01 -6.332681e-01
-2.107300e-01 -7.252171e-01 -6.554792e-01
-1.104264e-01 -7.312354e-01 -6.731276e-01
-6.803161e-03 -7.302195e-01 -6.831787e-01
9.805365e-02 -7.261782e-01 -6.804783e-01
2.021933e-01 -7.171489e-01 -6.669448e-01
3.038905e-01 -7.019016e-01 -6.441930e-01
4.006668e-01 -6.812248e-01 -6.126981e-01
4.904657e-01 -6.582322e-01 -5.711163e-01
5.728267e-01 -6.373699e-01 -5.153922e-01
6.511817e-01 -6.107601e-01 -4.504825e-01
6.755372e-01 -5.275102e-01 -5.151528e-01
6.914460e-01 -4.391873e-01 -5.736000e-01
7.024859e-01 -3.460340e-01 -6.219117e-01
7.154685e-01 -2.452342e-01 -6.541903e-01
7.249318e-01 -1.364642e-01 -6.751676e-01
7.300526e-01 -2.124274e-02 -6.830607e-01
7.323383e-01 9.834799e-02 -6.738013e-01
7.320620e-01 2.175961e-01 -6.455518e-01
7.238051e-01 3.326597e-01 -6.045194e-01
7.045816e-01 4.416144e-01 -5.554651e-01
6.732741e-01 5.431595e-01 -5.016768e-01
6.293358e-01 6.352378e-01 -4.476711e-01
5.741522e-01 7.139051e-01 -4.008600e-01
5.359394e-01 7.021131e-01 -4.688348e-01
4.663522e-01 7.379250e-01 -4.878344e-01
3.727354e-01 7.659777e-01 -5.237810e-01
2.730909e-01 7.808098e-01 -5.619230e-01
1.739463e-01 7.817151e-01 -5.988858e-01
7.900294e-02 7.730081e-01 -6.294577e-01
-1.219425e-02 7.607944e-01 -6.488784e-01
9.043995e-02 6.995192e-01 7.088678e-01
1.840874e-01 7.000807e-01 6.899267e-01
2.778768e-01 7.031355e-01 6.545112e-01
3.716080e-01 7.013451e-01 6.082947e-01
4.647171e-01 6.910954e-01 5.535568e-01
5.546218e-01 6.711937e-01 4.918269e-01
6.394882e-01 6.413204e-01 4.239848e-01
6.652855e-01 5.616079e-01 4.919267e-01
6.851723e-01 4.758659e-01 5.514441e-01
7.018132e-01 3.839116e-01 6.000585e-01
7.133424e-01 2.872689e-01 6.392333e-01
7.190411e-01 1.874529e-01 6.692094e-01
7.194893e-01 8.649039e-02 6.890969e-01
7.184429e-01 -1.408555e-02 6.954433e-01
7.176031e-01 -1.137309e-01 6.871034e-01
7.145519e-01 -2.143011e-01 6.659509e-01
7.048432e-01 -3.128410e-01 6.366526e-01
6.869186e-01 -4.053004e-01 6.032200e-01
6.660528e-01 -4.861142e-01 5.657443e-01
6.542515e-01 -5.573097e-01 5.112346e-01
6.347007e-01 -6.327855e-01 4.435511e-01
5.542679e-01 -6.613583e-01 5.053635e-01
4.751033e-01 -6.754463e-01 5.639585e-01
3.997228e-01 -6.839324e-01 6.102935e-01
3.167886e-01 -7.018953e-01 6.379561e-01
2.222752e-01 -7.178820e-01 6.597266e-01
1.202145e-01 -7.261021e-01 6.769965e-01
1.445243e-02 -7.289889e-01 6.843730e-01
-9.264793e-02 -7.271488e-01 6.801992e-01
-1.986094e-01 -7.197104e-01 6.652603e-01
-3.016514e-01 -7.059161e-01 6.408501e-01
-3.982952e-01 -6.895379e-01 6.048954e-01
-4.894122e-01 -6.722574e-01 5.554688e-01
-5.778971e-01 -6.499060e-01 4.936163e-01
-6.616188e-01 -6.189400e-01 4.232893e-01
-6.967842e-01 -5.264596e-01 4.871674e-01
-7.221487e-01 -4.265989e-01 5.445316e-01
-7.368755e-01 -3.208445e-01 5.950407e-01
-7.397472e-01 -2.124617e-01 6.384623e-01
-7.322339e-01 -1.045588e-01 6.729792e-01
-7.235234e-01 4.747426e-03 6.902836e-01
-7.170061e-01 1.156612e-01 6.874043e-01
-7.136258e-01 2.279099e-01 6.624163e-01
-7.054670e-01 3.369376e-01 6.235297e-01
-6.894538e-01 4.406106e-01 5.749050e-01
-6.639129e-01 5.375698e-01 5.198445e-01
-6.276648e-01 6.260918e-01 4.626511e-01
-5.793401e-01 7.031459e-01 4.122510e-01
-5.398131e-01 6.934252e-01 4.772456e-01
-4.723905e-01 7.305682e-01 4.930693e-01
-3.805785e-01 7.613785e-01 5.248455e-01
-2.813514e-01 7.805900e-01 5.581404e-01
-1.816783e-01 7.856434e-01 5.914030e-01
-8.644833e-02 7.794136e-01 6.205169e-01
3.920428e-03 7.686239e-01 6.396889e-01
-9.376512e-02 7.508861e-01 -6.537416e-01
-1.730007e-01 7.556233e-01 -6.317469e-01
-2.584852e-01 7.624686e-01 -5.931501e-01
-3.476371e-01 7.638319e-01 -5.437915e-01
-4.387336e-01 7.554976e-01 -4.865555e-01
-5.289584e-01 7.353635e-01 -4.236077e-01
-6.153855e-01 7.030827e-01 -3.563360e-01
-6.953724e-01 6.592496e-01 -2.860896e-01
-7.287258e-01 5.845301e-01 -3.567678e-01
-7.535292e-01 5.052922e-01 -4.205633e-01
-7.732659e-01 4.213516e-01 -4.738383e-01
-7.903105e-01 3.321857e-01 -5.148416e-01
-8.031769e-01 2.362721e-01 -5.468842e-01
-8.077654e-01 1.376727e-01 -5.732027e-01
-8.030057e-01 4.147576e-02 -5.945264e-01
-7.935612e-01 -4.709554e-02 -6.066651e-01
-7.915707e-01 -1.368318e-01 -5.955610e-01
-7.844483e-01 -2.340471e-01 -5.743368e-01
-7.657378e-01 -3.321116e-01 -5.507699e-01
-7.376141e-01 -4.237600e-01 -5.256928e-01
-7.020917e-01 -4.883992e-01 -5.182022e-01
-7.069932e-01 -5.358864e-01 -4.615045e-01
-6.900948e-01 -6.080472e-01 -3.924893e-01
-6.600120e-01 -6.802767e-01 -3.187598e-01
-5.814656e-01 -7.197920e-01 -3.792061e-01
-5.009592e-01 -7.453510e-01 -4.398770e-01
-4.240528e-01 -7.554702e-01 -4.994438e-01
-3.723952e-01 -7.440427e-01 -5.547272e-01
-3.023227e-01 -7.752164e-01 -5.546534e-01
-2.070470e-01 -7.944848e-01 -5.708988e-01
-1.072045e-01 -8.015795e-01 -5.881986e-01
-8.029022e-03 -7.999923e-01 -5.999566e-01
9.237622e-02 -7.973552e-01 -5.963986e-01
1.935767e-01 -7.892893e-01 -5.827096e-01
2.930764e-01 -7.737694e-01 -5.615934e-01
3.869083e-01 -7.506615e-01 -5.355458e-01
4.685057e-01 -7.260556e-01 -5.033346e-01
5.408366e-01 -7.105824e-01 -4.500760e-01
6.157042e-01 -6.882305e-01 -3.837278e-01
6.895461e-01 -6.536738e-01 -3.118281e-01
7.249164e-01 -5.744264e-01 -3.801719e-01
7.487982e-01 -4.911079e-01 -4.451004e-01
7.613489e-01 -4.067378e-01 -5.048884e-01
7.676908e-01 -3.261582e-01 -5.516083e-01
7.831250e-01 -2.370610e-01 -5.749063e-01
7.959410e-01 -1.348199e-01 -5.901708e-01
8.032400e-01 -2.571622e-02 -5.951001e-01
8.080371e-01 8.723078e-02 -5.826379e-01
8.079326e-01 2.008868e-01 -5.539759e-01
7.985481e-01 3.132434e-01 -5.140035e-01
7.768558e-01 4.222201e-01 -4.671459e-01
7.418783e-01 5.256347e-01 -4.163229e-01
6.923864e-01 6.220694e-01 -3.655553e-01
6.314773e-01 7.074561e-01 -3.173992e-01
5.543196e-01 7.886416e-01 -2.660342e-01
4.706224e-01 7.998708e-01 -3.724529e-01
3.433703e-01 8.372747e-01 -4.255208e-01
2.353061e-01 8.504560e-01 -4.704845e-01
1.355178e-01 8.469393e-01 -5.141291e-01
4.470087e-02 8.320751e-01 -5.528588e-01
-3.397307e-02 8.108594e-01 -5.842542e-01
8.536474e-02 7.599259e-01 6.443800e-01
1.642585e-01 7.655809e-01 6.220169e-01
2.488109e-01 7.733364e-01 5.831328e-01
3.374301e-01 7.749227e-01 5.344489e-01
4.287812e-01 7.657615e-01 4.793288e-01
5.192919e-01 7.454695e-01 4.178649e-01
6.054444e-01 7.143913e-01 3.508307e-01
6.855486e-01 6.723786e-01 2.791596e-01
7.172966e-01 6.008022e-01 3.528771e-01
7.400891e-01 5.245055e-01 4.209063e-01
7.579125e-01 4.432890e-01 4.786058e-01
7.735931e-01 3.562311e-01 5.240735e-01
7.851671e-01 2.624608e-01 5.609162e-01
7.898618e-01 1.654005e-01 5.905599e-01
7.877010e-01 6.912644e-02 6.121672e-01
7.817829e-01 -1.981908e-02 6.232356e-01
7.852063e-01 -1.086984e-01 6.096193e-01
7.848447e-01 -2.067833e-01 5.841742e-01
7.735187e-01 -3.051314e-01 5.554851e-01
7.503806e-01 -3.993908e-01 5.267029e-01
7.163702e-01 -4.683375e-01 5.171786e-01
7.248410e-01 -5.157364e-01 4.567510e-01
7.106467e-01 -5.897848e-01 3.835820e-01
6.797536e-01 -6.664524e-01 3.062292e-01
5.990467e-01 -7.086256e-01 3.728175e-01
5.166155e-01 -7.345023e-01 4.400168e-01
4.387608e-01 -7.440769e-01 5.038240e-01
3.865491e-01 -7.333380e-01 5.592810e-01
3.179609e-01 -7.641594e-01 5.612141e-01
2.232576e-01 -7.851789e-01 5.776245e-01
1.222412e-01 -7.957281e-01 5.931896e-01
1.773700e-02 -7.991713e-01 6.008417e-01
-8.680563e-02 -7.985896e-01 5.955833e-01
-1.896660e-01 -7.921050e-01 5.801694e-01
-2.873647e-01 -7.770581e-01 5.600020e-01
-3.740212e-01 -7.588616e-01 5.331390e-01
-4.533253e-01 -7.487855e-01 4.835457e-01
-5.354040e-01 -7.315856e-01 4.220487e-01
-6.175989e-01 -7.022740e-01 3.540945e-01
-6.937669e-01 -6.639459e-01 2.790402e-01
-7.382000e-01 -5.796196e-01 3.451115e-01
-7.741018e-01 -4.860456e-01 4.056182e-01
-8.002424e-01 -3.847874e-01 4.599464e-01
-8.147327e-01 -2.786162e-01 5.085112e-01
-8.141445e-01 -1.726639e-01 5.543969e-01
-8.022791e-01 -7.443600e-02 5.922900e-01
-7.883776e-01 1.668049e-02 6.149654e-01
-7.873420e-01 1.111803e-01 6.064087e-01
-7.851612e-01 2.135029e-01 5.813247e-01
-7.761638e-01 3.179358e-01 5.445059e-01
-7.580901e-01 4.206343e-01 4.983634e-01
-7.301406e-01 5.185822e-01 4.449351e-01
-6.900105e-01 6.111048e-01 3.878613e-01
-6.378128e-01 6.946599e-01 3.326296e-01
-5.651820e-01 7.776432e-01 2.753913e-01
-4.825737e-01 7.893059e-01 3.796298e-01
-3.590404e-01 8.306331e-01 4.256038e-01
-2.495587e-01 8.498232e-01 4.642424e-01
-1.472902e-01 8.506534e-01 5.046725e-01
-5.437278e-02 8.384439e-01 5.422688e-01
2.391803e-02 8.197087e-01 5.722810e-01
-8.703385e-02 8.465422e-01 -5.251585e-01
-1.439338e-01 8.065897e-01 -5.733203e-01
-2.172883e-01 8.217006e-01 -5.268718e-01
-3.015087e-01 8.286423e-01 -4.716402e-01
-3.911712e-01 8.236026e-01 -4.106869e-01
-4.824465e-01 8.044884e-01 -3.464734e-01
-5.710447e-01 7.719621e-01 -2.792534e-01
-6.534333e-01 7.274002e-01 -2.095563e-01
-7.274475e-01 6.719809e-01 -1.387869e-01
-7.674823e-01 6.040294e-01 -2.147543e-01
-7.984959e-01 5.303948e-01 -2.847554e-01
-8.193767e-01 4.554049e-01 -3.481783e-01
-8.324297e-01 3.824554e-01 -4.009845e-01
-8.509285e-01 2.989354e-01 -4.319239e-01
-8.658573e-01 2.024852e-01 -4.574832e-01
-8.679888e-01 1.039060e-01 -4.855913e-01
-8.578440e-01 9.691166e-03 -5.138188e-01
-8.361567e-01 -5.524659e-02 -5.457012e-01
-8.473412e-01 -1.263516e-01 -5.157986e-01
-8.426634e-01 -2.263821e-01 -4.885382e-01
-8.218622e-01 -3.346438e-01 -4.610380e-01
-7.812171e-01 -4.576627e-01 -4.245522e-01
-7.607436e-01 -5.558002e-01 -3.351945e-01
-7.304945e-01 -6.333258e-01 -2.554921e-01
-6.917062e-01 -7.004027e-01 -1.760076e-01
-6.189189e-01 -7.470021e-01 -2.427495e-01
-5.361507e-01 -7.869030e-01 -3.054934e-01
-4.459634e-01 -8.157155e-01 -3.684085e-01
-3.365846e-01 -8.288796e-01 -4.468439e-01
-2.039537e-01 -8.572645e-01 -4.727583e-01
-9.719187e-02 -8.603595e-01 -5.003352e-01
-8.223259e-03 -8.564276e-01 -5.162016e-01
8.344655e-02 -8.557542e-01 -5.106088e-01
1.824467e-01 -8.512558e-01 -4.920130e-01
2.834372e-01 -8.340970e-01 -4.732289e-01
3.791527e-01 -8.063442e-01 -4.539297e-01
4.489292e-01 -7.720750e-01 -4.498474e-01
4.958206e-01 -7.759268e-01 -3.899993e-01
5.681053e-01 -7.585464e-01 -3.191609e-01
6.424573e-01 -7.267559e-01 -2.430524e-01
7.125470e-01 -6.822126e-01 -1.638987e-01
7.581662e-01 -6.077471e-01 -2.362783e-01
7.928179e-01 -5.266505e-01 -3.067230e-01
8.145321e-01 -4.425303e-01 -3.751058e-01
8.217772e-01 -3.624885e-01 -4.396411e-01
8.115343e-01 -3.094561e-01 -4.956300e-01
8.370973e-01 -2.371694e-01 -4.929694e-01
8.535011e-01 -1.392137e-01 -5.021508e-01
8.622085e-01 -3.610012e-02 -5.052655e-01
8.694309e-01 7.044830e-02 -4.890060e-01
8.711847e-01 1.787660e-01 -4.572525e-01
8.623370e-01 2.884148e-01 -4.161632e-01
8.395292e-01 3.972130e-01 -3.706920e-01
8.028161e-01 5.018429e-01 -3.219316e-01
7.517310e-01 5.997519e-01 -2.742228e-01
6.882947e-01 6.879618e-01 -2.301281e-01
6.194694e-01 7.653285e-01 -1.747284e-01
5.482223e-01 8.293997e-01 -1.074641e-01
4.771581e-01 8.578304e-01 -1.909112e-01
3.876404e-01 8.825879e-01 -2.660330e-01
2.820045e-01 9.033691e-01 -3.231064e-01
1.764815e-01 9.100992e-01 -3.749318e-01
7.798981e-02 9.008177e-01 -4.271360e-01
-1.129983e-02 8.780995e-01 -4.783447e-01
7.550023e-02 8.553398e-01 5.125364e-01
1.343338e-01 8.168804e-01 5.609464e-01
2.067224e-01 8.318356e-01 5.150878e-01
2.919609e-01 8.378531e-01 4.612602e-01
3.828931e-01 8.319931e-01 4.014728e-01
4.747981e-01 8.114972e-01 3.406451e-01
5.623998e-01 7.800536e-01 2.742679e-01
6.433280e-01 7.380576e-01 2.034699e-01
7.161200e-01 6.856796e-01 1.304438e-01
7.580082e-01 6.190146e-01 2.055348e-01
7.873872e-01 5.487688e-01 2.808455e-01
8.056388e-01 4.773594e-01 3.508191e-01
8.166777e-01 4.078215e-01 4.083126e-01
8.338708e-01 3.268542e-01 4.447762e-01
8.469354e-01 2.340651e-01 4.774033e-01
8.498387e-01 1.376702e-01 5.087446e-01
8.427540e-01 4.392997e-02 5.365034e-01
8.246648e-01 -2.241736e-02 5.651773e-01
8.411083e-01 -8.872317e-02 5.335401e-01
8.457405e-01 -1.861939e-01 5.000548e-01
8.358660e-01 -2.951815e-01 4.628130e-01
8.028501e-01 -4.254653e-01 4.176255e-01
7.863545e-01 -5.281630e-01 3.204535e-01
7.536027e-01 -6.132797e-01 2.365818e-01
7.093658e-01 -6.879033e-01 1.535878e-01
6.345584e-01 -7.388851e-01 2.266812e-01
5.510178e-01 -7.795849e-01 2.977026e-01
4.609598e-01 -8.063206e-01 3.706254e-01
3.533217e-01 -8.174236e-01 4.549532e-01
2.253512e-01 -8.458500e-01 4.834818e-01
1.177148e-01 -8.555419e-01 5.041739e-01
1.611162e-02 -8.583325e-01 5.128408e-01
-8.362368e-02 -8.585065e-01 5.059384e-01
-1.840815e-01 -8.518627e-01 4.903508e-01
-2.810637e-01 -8.335699e-01 4.755675e-01
-3.538878e-01 -8.053521e-01 4.755748e-01
-4.057671e-01 -8.131301e-01 4.173398e-01
-4.836973e-01 -8.020466e-01 3.503686e-01
-5.649941e-01 -7.757812e-01 2.809719e-01
-6.422760e-01 -7.377541e-01 2.078469e-01
-7.092634e-01 -6.930265e-01 1.290722e-01
-7.599651e-01 -6.192084e-01 1.975702e-01
-8.041492e-01 -5.342917e-01 2.605310e-01
-8.404881e-01 -4.393324e-01 3.171228e-01
-8.671712e-01 -3.355505e-01 3.679946e-01
-8.802330e-01 -2.275294e-01 4.164375e-01
-8.775861e-01 -1.193445e-01 4.643269e-01
-8.546687e-01 -3.189501e-02 5.181932e-01
-8.312053e-01 2.606004e-02 5.553544e-01
-8.414221e-01 9.563568e-02 5.318484e-01
-8.453630e-01 1.897866e-01 4.993420e-01
-8.368383e-01 2.927185e-01 4.626203e-01
-8.181081e-01 3.951976e-01 4.177536e-01
-7.893176e-01 4.935076e-01 3.652779e-01
-7.495483e-01 5.861033e-01 3.076692e-01
-6.978037e-01 6.719674e-01 2.480521e-01
-6.339683e-01 7.509588e-01 1.847839e-01
-5.626575e-01 8.187864e-01 1.140412e-01
-4.916598e-01 8.477906e-01 1.988007e-01
-4.084265e-01 8.702509e-01 2.754109e-01
-3.058002e-01 8.946504e-01 3.257098e-01
-2.010566e-01 9.073694e-01 3.691301e-01
-9.601707e-02 9.063415e-01 4.114921e-01
-2.763455e-03 8.870076e-01 4.617465e-01
7.744553e-01 -6.271613e-01 -8.299256e-02
8.186107e-01 -5.521327e-01 -1.581963e-01
8.526533e-01 -4.688093e-01 -2.306519e-01
8.756792e-01 -3.775232e-01 -3.011016e-01
8.819507e-01 -2.703700e-01 -3.860869e-01
9.010404e-01 -1.436768e-01 -4.092470e-01
9.071210e-01 -4.581631e-02 -4.183688e-01
9.169328e-01 4.729552e-02 -3.962289e-01
9.220403e-01 1.475543e-01 -3.578678e-01
9.149715e-01 2.546128e-01 -3.130488e-01
8.914852e-01 3.649331e-01 -2.684734e-01
8.539616e-01 4.717419e-01 -2.195660e-01
7.994813e-01 5.752322e-01 -1.730250e-01
7.375037e-01 6.601434e-01 -1.424745e-01
6.780697e-01 7.296981e-01 -8.810370e-02
6.098381e-01 7.921872e-01 -2.317091e-02
5.362933e-01 8.427581e-01 4.634954e-02
4.745897e-01 8.795343e-01 -3.441119e-02
4.014653e-01 9.095133e-01 -1.077548e-01
3.135101e-01 9.341413e-01 -1.705620e-01
2.096881e-01 9.523832e-01 -2.213531e-01
1.050209e-01 9.547396e-01 -2.782855e-01
5.148335e-03 9.411843e-01 -3.378545e-01
-8.304037e-02 9.119684e-01 -4.017685e-01
-1.580595e-01 8.711941e-01 -4.647989e-01
-2.410095e-01 8.847502e-01 -3.989128e-01
-3.316844e-01 8.832179e-01 -3.315291e-01
-4.261049e-01 8.649108e-01 -2.652619e-01
-5.180953e-01 8.321071e-01 -1.979270e-01
-6.032402e-01 7.872165e-01 -1.280291e-01
-7.920174e-01 6.065735e-01 -6.911556e-02
-8.302393e-01 5.383634e-01 -1.444561e-01
-8.577029e-01 4.670471e-01 -2.149717e-01
-8.732297e-01 3.972546e-01 -2.822386e-01
-8.708970e-01 3.520510e-01 -3.429265e-01
-8.966888e-01 2.777571e-01 -3.446740e-01
-9.156599e-01 1.746540e-01 -3.620261e-01
-9.193805e-01 6.068670e-02 -3.886599e-01
-9.035190e-01 -7.081149e-02 -4.226572e-01
-8.954699e-01 -2.085674e-01 -3.932343e-01
-8.734213e-01 -3.202376e-01 -3.668557e-01
-8.445075e-01 -4.223430e-01 -3.292925e-01
-8.193469e-01 -5.097265e-01 -2.623919e-01
-7.906188e-01 -5.832136e-01 -1.865043e-01
-6.451580e-01 -7.580228e-01 -9.577375e-02
-5.727072e-01 -8.032159e-01 -1.638620e-01
-4.906615e-01 -8.419477e-01 -2.244448e-01
-3.991866e-01 -8.749469e-01 -2.740767e-01
-2.895129e-01 -9.011317e-01 -3.227134e-01
-1.660113e-01 -9.174929e-01 -3.614514e-01
-6.613148e-02 -9.076929e-01 -4.143913e-01
-2.986397e-03 -8.911796e-01 -4.536408e-01
6.584028e-02 -9.007799e-01 -4.292559e-01
1.617227e-01 -9.007620e-01 -4.030802e-01
2.712222e-01 -8.858219e-01 -3.765077e-01
4.029704e-01 -8.477842e-01 -3.447851e-01
5.031695e-01 -8.259664e-01 -2.541654e-01
5.849255e-01 -7.926055e-01 -1.721588e-01
6.570139e-01 -7.485097e-01 -8.981027e-02
8.263501e-01 -5.631548e-01 -1.480219e-03
8.684624e-01 -4.895677e-01 -7.808021e-02
-7.646169e-01 -6.428214e-01 4.627875e-02
-8.141205e-01 -5.697617e-01 1.121584e-01
-8.576999e-01 -4.849159e-01 1.709021e-01
-8.939972e-01 -3.888937e-01 2.225550e-01
-9.208505e-01 -2.826217e-01 2.686250e-01
-9.355972e-01 -1.667646e-01 3.112033e-01
-8.872239e-01 4.936868e-02 4.586899e-01
-8.955754e-01 1.561103e-01 4.166224e-01
-8.871667e-01 2.648386e-01 3.778832e-01
-8.684007e-01 3.650777e-01 3.355571e-01
-8.403503e-01 4.619341e-01 2.835989e-01
-8.027764e-01 5.521913e-01 2.250218e-01
-7.539621e-01 6.363804e-01 1.629757e-01
-6.940935e-01 7.132634e-01 9.741396e-02
-6.246969e-01 7.803717e-01 2.781517e-02
-4.836941e-01 8.742584e-01 4.138013e-02
-4.159522e-01 9.011604e-01 1.220397e-01
-3.468290e-01 9.185530e-01 1.896577e-01
-2.555354e-01 9.392310e-01 2.292307e-01
-1.461898e-01 9.532893e-01 2.643256e-01
-2.967424e-02 9.490910e-01 3.136012e-01
6.825311e-02 9.222587e-01 3.805002e-01
1.464686e-01 8.815358e-01 4.488224e-01
2.333462e-01 8.934296e-01 3.838399e-01
3.285417e-01 8.876870e-01 3.226020e-01
4.224987e-01 8.679211e-01 2.611662e-01
5.112597e-01 8.368101e-01 1.958632e-01
5.922919e-01 7.957377e-01 1.264591e-01
6.655523e-01 7.442337e-01 5.618081e-02
7.273150e-01 6.862301e-01 -1.005095e-02
7.798014e-01 6.238330e-01 5.236577e-02
8.219681e-01 5.541392e-01 1.315225e-01
8.483162e-01 4.847697e-01 2.129741e-01
8.606239e-01 4.190963e-01 2.892834e-01
8.557635e-01 3.780693e-01 3.531748e-01
8.806541e-01 3.056819e-01 3.619488e-01
8.970800e-01 2.092383e-01 3.891875e-01
9.011724e-01 1.037689e-01 4.208566e-01
8.919639e-01 -2.193960e-02 4.515739e-01
8.998095e-01 -1.492634e-01 4.099554e-01
8.944976e-01 -2.587849e-01 3.645607e-01
8.760917e-01 -3.695581e-01 3.096613e-01
8.511256e-01 -4.684294e-01 2.369791e-01
8.171050e-01 -5.543043e-01 1.583863e-01
7.735094e-01 -6.291440e-01 7.655758e-02
7.201085e-01 -6.938302e-01 -6.588272e-03
6.554204e-01 -7.520584e-01 6.951393e-02
5.810107e-01 -8.011343e-01 1.435632e-01
4.978155e-01 -8.403700e-01 2.143781e-01
4.069571e-01 -8.690969e-01 2.811698e-01
3.057248e-01 -8.885237e-01 3.421374e-01
1.990934e-01 -9.015302e-01 3.841941e-01
1.007025e-01 -9.046096e-01 4.141744e-01
1.267125e-02 -9.028055e-01 4.298625e-01
-7.619844e-02 -9.062239e-01 4.158750e-01
-1.777327e-01 -9.032983e-01 3.904654e-01
-3.076810e-01 -8.806155e-01 3.603452e-01
-4.146939e-01 -8.676968e-01 2.741007e-01
-5.046273e-01 -8.391139e-01 2.030741e-01
-5.849197e-01 -8.002227e-01 1.323353e-01
-6.525376e-01 -7.557130e-01 5.561124e-02
-7.084788e-01 -7.052830e-01 -2.517234e-02
-7.541397e-01 -6.480233e-01 -1.064856e-01
-8.081461e-01 -5.877816e-01 -3.758484e-02
5.925587e-01 -8.053969e-01 -1.448920e-02
5.199815e-01 -8.520993e-01 5.954891e-02
4.388696e-01 -8.892968e-01 1.286264e-01
3.489911e-01 -9.176798e-01 1.899183e-01
2.523861e-01 -9.367135e-01 2.426293e-01
1.554559e-01 -9.439418e-01 2.912169e-01
7.087828e-02 -9.399058e-01 3.339960e-01
1.047381e-02 -9.308548e-01 3.652392e-01
-5.028469e-02 -9.413513e-01 3.336603e-01
-1.401557e-01 -9.482097e-01 2.850522e-01
-2.449986e-01 -9.406190e-01 2.349716e-01
-3.509311e-01 -9.198893e-01 1.750745e-01
-4.433033e-01 -8.887915e-01 1.163262e-01
-5.245144e-01 -8.496515e-01 5.456168e-02
-5.897547e-01 -8.073788e-01 -1.813664e-02
-5.217610e-01 -8.486631e-01 -8.681238e-02
-4.514855e-01 -8.807391e-01 -1.430363e-01
-3.619807e-01 -9.160450e-01 -1.727180e-01
-2.492122e-01 -9.481263e-01 -1.973571e-01
1.337251e-02 -9.373682e-01 -3.480834e-01
1.248201e-01 -9.431470e-01 -3.080481e-01
2.378091e-01 -9.306890e-01 -2.779654e-01
3.452252e-01 -9.070423e-01 -2.410264e-01
4.404047e-01 -8.807778e-01 -1.739946e-01
5.212113e-01 -8.479778e-01 -9.629381e-02
-8.555308e-01 -5.171292e-01 2.538666e-02
-8.975120e-01 -4.339655e-01 7.839749e-02
-9.326547e-01 -3.392878e-01 1.226340e-01
-9.585158e-01 -2.350323e-01 1.612675e-01
-9.738390e-01 -1.205246e-01 1.926433e-01
-9.338826e-01 -2.468671e-02 3.567267e-01
-9.393949e-01 1.247778e-01 3.193238e-01
-9.269283e-01 2.414020e-01 2.872785e-01
-9.070132e-01 3.376131e-01 2.516832e-01
-8.818369e-01 4.261074e-01 2.019807e-01
-8.481482e-01 5.102172e-01 1.425591e-01
-8.033247e-01 5.902573e-01 7.915668e-02
-7.470753e-01 6.646179e-01 1.270650e-02
-6.802025e-01 7.308142e-01 -5.687879e-02
-8.457921e-01 5.335112e-01 -1.231555e-03
-8.811749e-01 4.666574e-01 -7.590636e-02
-9.092465e-01 3.897714e-01 -1.461133e-01
-9.292991e-01 2.910319e-01 -2.273844e-01
-9.559688e-01 1.522285e-01 -2.508987e-01
-9.615964e-01 3.040573e-02 -2.727781e-01
-9.527341e-01 -9.111200e-02 -2.898212e-01
-9.357707e-01 -2.053652e-01 -2.866327e-01
-9.106876e-01 -3.096115e-01 -2.734753e-01
-8.846829e-01 -3.940913e-01 -2.490548e-01
-8.653449e-01 -4.625835e-01 -1.928596e-01
-8.411380e-01 -5.276971e-01 -1.184173e-01
1.607932e-01 9.409882e-01 2.978031e-01
2.728489e-01 9.328295e-01 2.353351e-01
3.694824e-01 9.117661e-01 1.793467e-01
4.558409e-01 8.825224e-01 1.155999e-01
-1.670632e-01 9.313144e-01 -3.236407e-01
-2.627980e-01 9.320455e-01 -2.494561e-01
-3.613662e-01 9.149218e-01 -1.798126e-01
-4.581618e-01 8.815953e-01 -1.134793e-01
-5.462663e-01 8.364879e-01 -4.337168e-02
3.964323e-01 9.172905e-01 3.767733e-02
3.323725e-01 9.426506e-01 -3.063468e-02
2.505830e-01 9.652429e-01 -7.425796e-02
1.422447e-01 9.830908e-01 -1.153213e-01
2.300720e-02 9.851378e-01 -1.702179e-01
-7.994378e-02 9.654903e-01 -2.478660e-01
7.692613e-01 6.353824e-01 -6.727824e-02
8.774516e-01 4.765213e-01 5.482824e-02
9.032212e-01 4.031597e-01 1.471518e-01
9.166493e-01 3.146657e-01 2.464539e-01
9.385056e-01 1.894294e-01 2.886587e-01
9.425143e-01 8.262697e-02 3.237893e-01
9.398761e-01 -1.761854e-02 3.410607e-01
9.430486e-01 -1.146628e-01 3.122688e-01
9.401535e-01 -2.140374e-01 2.651404e-01
9.261885e-01 -3.131474e-01 2.100324e-01
9.009516e-01 -4.073631e-01 1.494705e-01
8.683766e-01 -4.898893e-01 7.701005e-02
9.009985e-01 -4.074065e-01 -1.490690e-01
9.247325e-01 -3.158530e-01 -2.123835e-01
9.366940e-01 -2.160427e-01 -2.755537e-01
9.399032e-01 -1.194120e-01 -3.198791e-01
9.349624e-01 -5.136776e-02 -3.510081e-01
9.500619e-01 1.155365e-02 -3.118476e-01
9.597898e-01 9.978698e-02 -2.623854e-01
9.559865e-01 2.087057e-01 -2.062321e-01
9.309517e-01 3.259476e-01 -1.645818e-01
8.931129e-01 4.354849e-01 -1.127043e-01
8.314595e-01 5.534047e-01 -4.917767e-02
-3.944783e-01 9.185080e-01 -2.701794e-02
-3.423045e-01 9.378113e-01 5.777164e-02
-3.037929e-01 9.444017e-01 1.257588e-01
-2.259752e-01 9.655495e-01 1.290323e-01
-9.682300e-02 9.857031e-01 1.378936e-01
6.957286e-02 9.809121e-01 1.815792e-01
2.226604e-01 9.654528e-01 1.353630e-01
3.208370e-01 9.420240e-01 9.825685e-02
-1.817550e-01 9.708466e-01 -1.562757e-01
-2.974381e-01 9.507530e-01 -8.717433e-02
-8.848417e-01 -4.618844e-01 -6.097501e-02
-9.233800e-01 -3.836311e-01 -1.401799e-02
-9.562104e-01 -2.919293e-01 2.094934e-02
-9.952152e-01 3.145823e-02 9.250426e-02
-9.768776e-01 1.972256e-03 2.137903e-01
-9.701752e-01 1.255945e-01 2.073307e-01
-9.538476e-01 2.284794e-01 1.948640e-01
-9.334402e-01 3.134670e-01 1.744357e-01
-9.140434e-01 3.852146e-01 1.270213e-01
-8.857786e-01 4.594999e-01 6.523956e-02
-9.176205e-01 3.974524e-01 -2.061615e-03
-9.451548e-01 3.208762e-01 -6.099851e-02
-9.690001e-01 2.228622e-01 -1.066360e-01
-9.848940e-01 1.099089e-01 -1.338051e-01
-9.877589e-01 -3.761160e-03 -1.559428e-01
-9.782412e-01 -1.148309e-01 -1.727948e-01
-9.580936e-01 -2.213442e-01 -1.818333e-01
-9.322098e-01 -3.098772e-01 -1.869786e-01
-9.347294e-01 -3.397522e-01 -1.041608e-01
-9.013620e-01 -4.110983e-01 -1.361788e-01
-4.673502e-01 -8.838317e-01 -2.062342e-02
-8.242876e-02 -9.699582e-01 -2.288811e-01
8.415999e-02 -9.771681e-01 -1.950885e-01
2.075367e-01 -9.618702e-01 -1.781412e-01
3.003769e-01 -9.414441e-01 -1.531559e-01
3.783393e-01 -9.207201e-01 -9.557097e-02
4.514778e-01 -8.920220e-01 -2.155472e-02
3.754886e-01 -9.257412e-01 4.484906e-02
2.884849e-01 -9.522080e-01 1.003813e-01
1.903056e-01 -9.700885e-01 1.507055e-01
9.328694e-02 -9.748097e-01 2.025920e-01
9.884268e-03 -9.642585e-01 2.647788e-01
-7.279398e-02 -9.781906e-01 1.945356e-01
-1.757254e-01 -9.769140e-01 1.214895e-01
-2.932069e-01 -9.537064e-01 6.688705e-02
-3.900473e-01 -9.204907e-01 2.366490e-02
9.074985e-01 -4.200538e-01 -1.129625e-03
9.356897e-01 -3.458936e-01 -6.958751e-02
9.602840e-01 -2.527002e-01 -1.183097e-01
9.717855e-01 -1.517044e-01 -1.806063e-01
9.675338e-01 -5.877982e-02 -2.458115e-01
9.851117e-01 2.715559e-02 -1.697574e-01
9.859989e-01 1.463016e-01 -8.001220e-02
9.565982e-01 2.842690e-01 -6.411666e-02
9.238904e-01 3.824631e-01 -1.218516e-02
-9.975279e-01 6.710951e-02 -2.084419e-02
9.425327e-01 3.255382e-01 7.521229e-02
9.599141e-01 2.428969e-01 1.398786e-01
9.711348e-01 1.449940e-01 1.894043e-01
9.704997e-01 5.395123e-02 2.349884e-01
9.632961e-01 -1.314500e-02 2.681189e-01
9.711873e-01 -7.565408e-02 2.259904e-01
9.727662e-01 -1.583109e-01 1.693031e-01
9.606442e-01 -2.539069e-01 1.126675e-01
9.359164e-01 -3.458916e-01 6.647877e-02
-9.394482e-01 3.364339e-01 6.518634e-02
-9.638317e-01 2.651706e-01 2.670109e-02
-9.646573e-01 -2.508628e-01 -8.064828e-02
2.889464e-01 9.568342e-01 3.127815e-02
2.110064e-01 9.771407e-01 2.592831e-02
8.620016e-02 9.961749e-01 1.432424e-02
-8.256379e-02 9.960729e-01 -3.196819e-02
-2.428245e-01 9.699118e-01 1.753004e-02
3.158583e-01 -9.483185e-01 -3.042252e-02
2.355039e-01 -9.718082e-01 1.125587e-02
-2.479483e-01 -9.670506e-01 -5.774744e-02
-3.570162e-01 -9.313812e-01 -7.119318e-02
-8.327209e-02 -9.962582e-01 -2.313735e-02
1.676430e-02 -9.939587e-01 1.084671e-01
1.325930e-01 -9.897837e-01 5.241475e-02
9.638981e-01 2.655722e-01 1.928423e-02
9.873686e-01 -4.809887e-03 1.583670e-01
9.930691e-01 -8.509670e-02 8.106934e-02
9.810471e-01 -1.937439e-01 -3.147545e-03
9.555043e-01 -2.949697e-01 -2.070583e-03
1.995456e-01 -9.766262e-01 -7.989220e-02
2.726687e-01 -9.580692e-01 -8.806311e-02
9.932253e-01 -7.513683e-02 -8.864513e-02
9.998490e-01 1.736060e-02 7.404397e-04
9.912930e-01 8.663672e-02 9.915757e-02
9.816768e-01 1.846336e-01 4.712794e-02
-9.848000e-01 1.736903e-01 -7.884334e-04
-9.667001e-01 2.317920e-01 1.084590e-01
-9.487401e-01 2.942902e-01 1.152627e-01
-9.074059e-02 7.910427e-01 -6.049939e-01
8.137512e-02 8.005068e-01 5.937734e-01
-9.850979e-01 1.391080e-01 1.011490e-01
-9.081695e-01 -3.725019e-01 -1.909727e-01
8.739137e-02 -9.941475e-01 -6.351006e-02
-4.245573e-01 -9.020050e-01 -7.834583e-02
-9.982935e-01 -4.214171e-02 -4.042466e-02
-9.867892e-01 -1.503657e-01 -6.030870e-02
-9.937293e-01 -8.209979e-02 7.590557e-02
-9.803580e-01 -1.907328e-01 5.019184e-02

CELLS 1020 5100
4 2 4 6 0
4 6 8 10 0
4 10 12 14 0
4 14 16 2 0
4 3 17 15 1
4 15 13 11 1
4 11 9 7 1
4 7 5 3 1
4 5 7 19 18
4 7 9 20 19
4 9 22 21 20
4 9 11 23 22
4 11 13 24 23
4 13 26 25 24
4 13 15 27 26
4 15 17 28 27
4 17 30 29 28
4 17 3 31 30
4 3 5 32 31
4 5 18 33 32
4 18 35 34 33
4 18 19 36 35
4 8 6 38 37
4 6 4 39 38
4 4 41 40 39
4 4 2 42 41
4 2 16 43 42
4 16 45 44 43
4 16 14 46 45
4 14 12 47 46
4 12 49 48 47
4 12 10 50 49
4 10 8 51 50
4 8 37 52 51
4 37 54 53 52
4 37 38 55 54
4 19 20 56 36
4 20 21 57 56
4 21 59 58 57
4 21 22 60 59
4 22 23 61 60
4 23 24 62 61
4 24 25 63 62
4 25 65 64 63
4 25 26 66 65
4 26 27 67 66
4 27 28 68 67
4 28 29 69 68
4 29 71 70 69
4 29 30 72 71
4 30 31 73 72
4 31 32 74 73
4 32 33 75 74
4 33 34 76 75
4 34 78 77 76
4 34 35 79 78
4 35 36 80 79
4 38 39 81 55
4 39 40 82 81
4 40 84 83 82
4 40 41 85 84
4 41 42 86 85
4 42 43 87 86
4 43 44 88 87
4 44 90 89 88
4 44 45 91 90
4 45 46 92 91
4 46 47 93 92
4 47 48 94 93
4 48 96 95 94
4 48 49 97 96
4 49 50 98 97
4 50 51 99 98
4 51 52 100 99
4 52 53 101 100
4 53 103 102 101
4 53 54 104 103
4 54 55 105 104
4 36 56 106 80
4 56 57 107 106
4 57 58 108 107
4 58 110 109 108
4 58 59 111 110
4 59 60 112 111
4 60 61 113 112
4 61 62 114 113
4 62 63 115 114
4 63 64 116 115
4 64 118 117 116
4 64 65 119 118
4 65 66 120 119
4 66 67 121 120
4 67 68 122 121
4 68 69 123 122
4 69 70 124 123
4 70 126 125 124
4 70 71 127 126
4 71 72 128 127
4 72 73 129 128
4 73 74 130 129
4 74 75 131 130
4 75 76 132 131
4 76 77 133 132
4 77 135 134 133
4 77 78 136 135
4 78 79 137 136
4 79 80 138 137
4 55 81 139 105
4 81 82 140 139
4 82 83 141 140
4 83 143 142 141
4 83 84 144 143
4 84 85 145 144
4 85 86 146 145
4 86 87 147 146
4 87 88 148 147
4 88 89 149 148
4 89 151 150 149
4 89 90 152 151
4 90 91 153 152
4 91 92 154 153
4 92 93 155 154
4 93 94 156 155
4 94 95 157 156
4 95 159 158 157
4 95 96 160 159
4 96 97 161 160
4 97 98 162 161
4 98 99 163 162
4 99 100 164 163
4 100 101 165 164
4 101 102 166 165
4 102 168 167 166
4 102 103 169 168
4 103 104 170 169
4 104 105 171 170
4 80 106 172 138
4 106 107 173 172
4 107 108 174 173
4 108 109 175 174
4 109 177 176 175
4 109 110 178 177
4 110 111 179 178
4 111 112 180 179
4 112 113 181 180
4 113 114 182 181
4 114 115 183 182
4 115 116 184 183
4 116 117 185 184
4 117 187 186 185
4 117 118 188 187
4 118 119 189 188
4 119 120 190 189
4 120 121 191 190
4 121 122 192 191
4 122 123 193 192
4 123 124 194 193
4 124 125 195 194
4 125 197 196 195
4 125 126 198 197
4 126 127 199 198
4 127 128 200 199
4 128 129 201 200
4 130 131 201 129
4 131 132 202 201
4 132 133 203 202
4 133 134 204 203
4 134 206 205 204
4 134 135 207 206
4 135 136 208 207
4 136 137 209 208
4 137 138 210 209
4 105 139 211 171
4 139 140 212 211
4 140 141 213 212
4 141 142 214 213
4 142 216 215 214
4 142 143 217 216
4 143 144 218 217
4 144 145 219 218
4 145 146 220 219
4 146 147 221 220
4 147 148 222 221
4 148 149 223 222
4 149 150 224 223
4 150 226 225 224
4 150 151 227 226
4 151 152 228 227
4 152 153 229 228
4 153 154 230 229
4 154 155 231 230
4 155 156 232 231
4 156 157 233 232
4 157 158 234 233
4 158 236 235 234
4 158 159 237 236
4 159 160 238 237
4 160 161 239 238
4 161 162 240 239
4 163 164 240 162
4 164 165 241 240
4 165 166 242 241
4 166 167 243 242
4 167 245 244 243
4 167 168 246 245
4 168 169 247 246
4 169 170 248 247
4 170 171 249 248
4 138 172 250 210
4 172 173 251 250
4 173 174 252 251
4 174 175 253 252
4 175 176 254 253
4 176 256 255 254
4 176 177 257 256
4 177 178 258 257
4 178 179 259 258
4 179 180 260 259
4 180 181 261 260
4 181 182 262 261
4 182 183 263 262
4 183 184 264 263
4 184 185 265 264
4 185 186 266 265
4 186 268 267 266
4 186 187 269 268
4 187 188 270 269
4 188 189 271 270
4 189 190 272 271
4 190 191 273 272
4 191 192 274 273
4 192 193 275 274
4 193 194 276 275
4 194 195 277 276
4 195 196 278 277
4 196 280 279 278
4 196 197 281 280
4 197 198 282 281
4 198 199 283 282
4 199 200 284 283
4 200 201 285 284
4 201 202 286 285
4 202 203 287 286
4 203 204 288 287
4 204 205 289 288
4 205 291 290 289
4 205 206 292 291
4 206 207 293 292
4 207 208 294 293
4 208 209 295 294
4 209 210 296 295
4 171 211 297 249
4 211 212 298 297
4 212 213 299 298
4 213 214 300 299
4 214 215 301 300
4 215 303 302 301
4 215 216 304 303
4 216 217 305 304
4 217 218 306 305
4 218 219 307 306
4 219 220 308 307
4 220 221 309 308
4 221 222 310 309
4 222 223 311 310
4 223 224 312 311
4 224 225 313 312
4 225 315 314 313
4 225 226 316 315
4 226 227 317 316
4 227 228 318 317
4 228 229 319 318
4 229 230 320 319
4 230 231 321 320
4 231 232 322 321
4 232 233 323 322
4 233 234 324 323
4 234 235 325 324
4 235 327 326 325
4 235 236 328 327
4 236 237 329 328
4 237 238 330 329
4 238 239 331 330
4 239 240 332 331
4 240 241 333 332
4 241 242 334 333
4 242 243 335 334
4 243 244 336 335
4 244 338 337 336
4 244 245 339 338
4 245 246 340 339
4 246 247 341 340
4 247 248 342 341
4 248 249 343 342
4 210 250 344 296
4 250 251 345 344
4 251 252 346 345
4 252 253 347 346
4 253 254 348 347
4 254 255 349 348
4 255 351 350 349
4 255 256 352 351
4 256 257 353 352
4 257 258 354 353
4 258 259 355 354
4 259 260 356 355
4 260 261 357 356
4 261 262 358 357
4 262 263 359 358
4 263 264 360 359
4 264 265 361 360
4 265 266 362 361
4 266 267 363 362
4 267 365 364 363
4 267 268 366 365
4 268 269 367 366
4 269 270 368 367
4 270 271 369 368
4 271 272 370 369
4 272 273 371 370
4 273 274 372 371
4 274 275 373 372
4 275 276 374 373
4 276 277 375 374
4 277 278 376 375
4 278 279 377 376
4 279 379 378 377
4 279 280 380 379
4 280 281 381 380
4 281 282 382 381
4 282 283 383 382
4 283 284 384 383
4 284 285 385 384
4 285 286 386 385
4 286 287 387 386
4 287 288 388 387
4 288 289 389 388
4 289 290 390 389
4 290 392 391 390
4 290 291 393 392
4 291 292 394 393
4 292 293 395 394
4 293 294 396 395
4 294 295 397 396
4 295 296 398 397
4 249 297 399 343
4 297 298 400 399
4 298 299 401 400
4 299 300 402 401
4 300 301 403 402
4 301 302 404 403
4 302 406 405 404
4 302 303 407 406
4 303 304 408 407
4 304 305 409 408
4 305 306 410 409
4 306 307 411 410
4 307 308 412 411
4 308 309 413 412
4 309 310 414 413
4 310 311 415 414
4 311 312 416 415
4 312 313 417 416
4 313 314 418 417
4 314 420 419 418
4 314 315 421 420
4 315 316 422 421
4 316 317 423 422
4 317 318 424 423
4 318 319 425 424
4 319 320 426 425
4 320 321 427 426
4 321 322 428 427
4 322 323 429 428
4 323 324 430 429
4 324 325 431 430
4 325 326 432 431
4 326 434 433 432
4 326 327 435 434
4 327 328 436 435
4 328 329 437 436
4 329 330 438 437
4 330 331 439 438
4 331 332 440 439
4 332 333 441 440
4 333 334 442 441
4 334 335 443 442
4 335 336 444 443
4 336 337 445 444
4 337 447 446 445
4 337 338 448 447
4 338 339 449 448
4 339 340 450 449
4 340 341 451 450
4 341 342 452 451
4 342 343 453 452
4 296 344 454 398
4 344 345 455 454
4 345 346 456 455
4 346 347 457 456
4 347 348 458 457
4 348 349 459 458
4 349 350 460 459
4 350 462 461 460
4 350 351 463 462
4 351 352 464 463
4 352 353 465 464
4 353 354 466 465
4 354 355 467 466
4 355 356 468 467
4 356 357 469 468
4 357 358 470 469
4 358 359 471 470
4 359 360 472 471
4 360 361 473 472
4 361 362 474 473
4 362 363 475 474
4 363 364 476 475
4 364 478 477 476
4 364 365 479 478
4 365 366 480 479
4 366 367 481 480
4 367 368 482 481
4 368 369 483 482
4 369 370 484 483
4 370 371 485 484
4 371 372 486 485
4 372 373 487 486
4 373 374 488 487
4 374 375 489 488
4 375 376 490 489
4 376 377 491 490
4 377 378 492 491
4 378 494 493 492
4 378 379 495 494
4 379 380 496 495
4 380 381 497 496
4 381 382 498 497
4 382 383 499 498
4 383 384 500 499
4 384 385 501 500
4 385 386 502 501
4 386 387 503 502
4 387 388 504 503
4 388 389 505 504
4 389 390 506 505
4 390 391 507 506
4 391 509 508 507
4 392 393 509 391
4 393 394 510 509
4 394 395 511 510
4 395 396 512 511
4 396 397 513 512
4 397 398 514 513
4 343 399 515 453
4 399 400 516 515
4 400 401 517 516
4 401 402 518 517
4 402 403 519 518
4 403 404 520 519
4 404 405 521 520
4 405 523 522 521
4 405 406 524 523
4 406 407 525 524
4 407 408 526 525
4 408 409 527 526
4 409 410 528 527
4 410 411 529 528
4 411 412 530 529
4 412 413 531 530
4 413 414 532 531
4 414 415 533 532
4 415 416 534 533
4 416 417 535 534
4 417 418 536 535
4 418 419 537 536
4 419 539 538 537
4 419 420 540 539
4 420 421 541 540
4 421 422 542 541
4 422 423 543 542
4 423 424 544 543
4 424 425 545 544
4 425 426 546 545
4 426 427 547 546
4 427 428 548 547
4 428 429 549 548
4 429 430 550 549
4 430 431 551 550
4 431 432 552 551
4 432 433 553 552
4 433 555 554 553
4 433 434 556 555
4 434 435 557 556
4 435 436 558 557
4 436 437 559 558
4 437 438 560 559
4 438 439 561 560
4 439 440 562 561
4 440 441 563 562
4 441 442 564 563
4 442 443 565 564
4 443 444 566 565
4 444 445 567 566
4 445 446 568 567
4 446 570 569 568
4 447 448 570 446
4 448 449 571 570
4 449 450 572 571
4 450 451 573 572
4 451 452 574 573
4 452 453 575 574
4 455 456 578 577
4 456 457 579 578
4 457 458 580 579
4 458 459 581 580
4 459 460 582 581
4 460 461 583 582
4 461 585 584 583
4 461 462 586 585
4 462 463 587 586
4 463 464 588 587
4 464 465 589 588
4 465 466 590 589
4 466 467 591 590
4 467 468 592 591
4 468 469 593 592
4 469 470 594 593
4 470 471 595 594
4 471 472 596 595
4 472 473 597 596
4 474 475 597 473
4 475 476 598 597
4 476 477 599 598
4 477 601 600 599
4 477 478 602 601
4 478 479 603 602
4 479 480 604 603
4 481 482 604 480
4 482 483 605 604
4 483 484 606 605
4 484 485 607 606
4 485 486 608 607
4 486 487 609 608
4 487 488 610 609
4 488 489 611 610
4 489 490 612 611
4 490 491 613 612
4 491 492 614 613
4 492 493 615 614
4 493 617 616 615
4 493 494 618 617
4 494 495 619 618
4 495 496 620 619
4 496 497 621 620
4 497 498 622 621
4 498 499 623 622
4 499 500 624 623
4 500 501 625 624
4 501 502 626 625
4 502 503 627 626
4 503 504 628 627
4 504 505 629 628
4 505 506 630 629
4 506 507 631 630
4 507 508 632 631
4 508 634 633 632
4 508 509 635 634
4 509 510 636 635
4 510 511 637 636
4 511 512 638 637
4 512 513 639 638
4 513 514 576 639
4 516 517 642 641
4 517 518 643 642
4 518 519 644 643
4 519 520 645 644
4 520 521 646 645
4 521 522 647 646
4 522 649 648 647
4 522 523 650 649
4 523 524 651 650
4 524 525 652 651
4 525 526 653 652
4 526 527 654 653
4 527 528 655 654
4 528 529 656 655
4 529 530 657 656
4 530 531 658 657
4 531 532 659 658
4 532 533 660 659
4 533 534 661 660
4 535 536 661 534
4 536 537 662 661
4 537 538 663 662
4 538 665 664 663
4 538 539 666 665
4 539 540 667 666
4 540 541 668 667
4 542 543 668 541
4 543 544 669 668
4 544 545 670 669
4 545 546 671 670
4 546 547 672 671
4 547 548 673 672
4 548 549 674 673
4 549 550 675 674
4 550 551 676 675
4 551 552 677 676
4 552 553 678 677
4 553 554 679 678
4 554 681 680 679
4 554 555 682 681
4 555 556 683 682
4 556 557 684 683
4 557 558 685 684
4 558 559 686 685
4 559 560 687 686
4 560 561 688 687
4 561 562 689 688
4 562 563 690 689
4 563 564 691 690
4 564 565 692 691
4 565 566 693 692
4 566 567 694 693
4 567 568 695 694
4 568 569 696 695
4 569 698 697 696
4 569 570 699 698
4 570 571 700 699
4 571 572 701 700
4 572 573 702 701
4 573 574 703 702
4 574 575 640 703
4 616 617 705 704
4 617 618 706 705
4 618 619 707 706
4 619 620 708 707
4 621 622 708 620
4 622 623 709 708
4 623 624 710 709
4 624 625 711 710
4 625 626 712 711
4 626 627 713 712
4 627 628 714 713
4 628 629 715 714
4 629 630 716 715
4 630 631 717 716
4 631 632 718 717
4 632 633 719 718
4 633 721 720 719
4 633 634 722 721
4 634 635 723 722
4 635 636 724 723
4 636 637 725 724
4 637 638 726 725
4 638 639 727 726
4 639 576 728 727
4 577 578 728 576
4 578 579 729 728
4 579 580 730 729
4 580 581 731 730
4 581 582 732 731
4 582 583 733 732
4 583 584 867 733
4 584 734 866 867
4 584 585 735 734
4 585 586 736 735
4 586 587 737 736
4 587 588 738 737
4 588 589 739 738
4 589 590 740 739
4 590 591 741 740
4 591 592 742 741
4 593 594 742 592
4 594 595 743 742
4 595 596 744 743
4 596 597 745 744
4 597 598 746 745
4 598 599 747 746
4 599 600 827 747
4 600 748 826 827
4 600 601 749 748
4 601 602 750 749
4 602 603 751 750
4 603 604 752 751
4 604 605 753 752
4 605 606 754 753
4 606 607 755 754
4 607 608 756 755
4 608 609 757 756
4 609 610 758 757
4 610 611 759 758
4 612 613 759 611
4 613 614 760 759
4 614 615 761 760
4 615 616 762 761
4 616 704 810 762
4 704 763 809 810
4 704 705 764 763
4 680 681 766 765
4 681 682 767 766
4 682 683 768 767
4 683 684 769 768
4 684 685 770 769
4 685 686 859 770
4 686 687 771 859
4 689 690 772 771
4 690 691 773 772
4 691 692 774 773
4 692 693 775 774
4 693 694 776 775
4 694 695 777 776
4 695 696 778 777
4 696 697 779 778
4 697 780 888 779
4 697 698 781 780
4 698 699 782 781
4 699 700 783 782
4 700 701 784 783
4 701 702 785 784
4 702 703 786 785
4 703 640 787 786
4 641 642 787 640
4 642 643 788 787
4 643 644 789 788
4 644 645 790 789
4 645 646 791 790
4 646 647 792 791
4 647 648 793 792
4 648 795 794 793
4 648 649 796 795
4 649 650 797 796
4 650 651 798 797
4 651 652 799 798
4 652 653 800 799
4 653 654 801 800
4 654 655 802 801
4 655 656 803 802
4 657 658 803 656
4 658 659 804 803
4 659 660 805 804
4 660 661 806 805
4 661 662 807 806
4 662 663 808 807
4 663 664 809 808
4 664 811 810 809
4 664 665 812 811
4 665 666 813 812
4 666 667 814 813
4 667 668 815 814
4 668 669 816 815
4 669 670 817 816
4 670 671 818 817
4 671 672 819 818
4 672 673 820 819
4 673 674 821 820
4 675 676 821 674
4 676 677 822 821
4 677 678 823 822
4 678 679 824 823
4 679 680 825 824
4 680 765 826 825
4 765 828 827 826
4 810 811 829 762
4 811 812 830 829
4 812 813 831 830
4 813 814 832 831
4 814 815 833 832
4 815 816 834 833
4 816 817 835 834
4 817 818 836 835
4 818 819 837 836
4 819 820 838 837
4 820 821 839 838
4 821 822 840 839
4 822 823 841 840
4 823 824 842 841
4 824 825 843 842
4 825 826 748 843
4 748 749 844 843
4 749 750 845 844
4 750 751 846 845
4 751 752 847 846
4 752 753 949 847
4 753 754 848 949
4 756 757 849 848
4 757 758 850 849
4 758 759 851 850
4 759 760 852 851
4 760 761 853 852
4 761 762 829 853
4 765 766 854 828
4 766 767 855 854
4 767 768 856 855
4 768 769 857 856
4 769 770 858 857
4 771 772 860 859
4 772 773 861 860
4 773 774 862 861
4 774 775 863 862
4 775 776 864 863
4 776 777 865 864
4 777 778 866 865
4 778 779 867 866
4 866 734 868 865
4 734 735 869 868
4 735 736 870 869
4 736 737 871 870
4 738 739 871 737
4 739 740 872 871
4 740 741 873 872
4 741 742 874 873
4 742 743 875 874
4 743 744 876 875
4 744 745 877 876
4 745 746 878 877
4 746 747 879 878
4 747 827 828 879
4 787 788 880 786
4 788 789 881 880
4 789 790 882 881
4 790 791 883 882
4 791 792 720 883
4 792 793 719 720
4 728 729 884 727
4 729 730 885 884
4 730 731 886 885
4 731 732 887 886
4 732 733 888 887
4 733 867 779 888
4 793 794 718 719
4 720 721 889 883
4 721 722 890 889
4 722 723 891 890
4 723 724 892 891
4 724 725 893 892
4 725 726 894 893
4 726 727 884 894
4 718 794 895 717
4 794 795 917 895
4 795 796 896 917
4 796 797 897 896
4 797 798 898 897
4 799 800 898 798
4 800 801 899 898
4 801 802 900 899
4 802 803 901 900
4 803 804 902 901
4 804 805 903 902
4 805 806 904 903
4 806 807 905 904
4 807 808 906 905
4 808 809 763 906
4 705 706 907 764
4 706 707 908 907
4 707 708 909 908
4 708 709 910 909
4 709 710 911 910
4 710 711 912 911
4 711 712 913 912
4 712 713 914 913
4 713 714 915 914
4 714 715 916 915
4 715 716 917 916
4 716 717 895 917
4 888 780 918 887
4 780 781 919 918
4 781 782 920 919
4 782 783 921 920
4 783 784 922 921
4 784 785 923 922
4 785 786 880 923
4 880 881 924 923
4 881 882 925 924
4 882 883 889 925
4 884 885 926 894
4 885 886 927 926
4 886 887 918 927
4 828 854 928 879
4 854 855 929 928
4 855 856 930 929
4 856 857 1021 930
4 859 860 933 932
4 860 861 934 933
4 861 862 935 934
4 862 863 936 935
4 863 864 937 936
4 864 865 868 937
4 868 869 938 937
4 869 870 939 938
4 870 871 940 939
4 871 872 941 940
4 872 873 942 941
4 873 874 943 942
4 874 875 944 943
4 875 876 945 944
4 878 879 928 947
4 843 844 948 842
4 846 847 993 994
4 848 849 950 949
4 849 850 951 950
4 850 851 952 951
4 851 852 953 952
4 852 853 954 953
4 853 829 830 954
4 830 831 955 954
4 831 832 956 955
4 832 833 957 956
4 833 834 958 957
4 834 835 959 958
4 836 837 959 835
4 837 838 960 959
4 838 839 961 960
4 839 840 962 961
4 840 841 963 962
4 841 842 948 963
4 763 764 964 906
4 764 907 965 964
4 907 908 966 965
4 908 909 967 966
4 909 910 968 967
4 911 912 968 910
4 912 913 969 968
4 913 914 970 969
4 914 915 971 970
4 915 916 972 971
4 916 917 896 972
4 928 929 946 947
4 929 930 985 946
4 930 1021 1019 985
4 896 897 974 972
4 897 898 975 974
4 898 899 976 975
4 899 900 977 976
4 900 901 978 977
4 901 902 979 978
4 902 903 980 979
4 903 904 981 980
4 904 905 982 981
4 905 906 964 982
4 937 938 983 936
4 938 939 984 983
4 939 940 1009 984
4 940 941 973 1009
4 943 944 985 1019
4 944 945 946 985
4 889 890 986 925
4 890 891 987 986
4 891 892 988 987
4 892 893 989 988
4 893 894 926 989
4 918 919 990 927
4 919 920 921 990
4 921 922 989 990
4 925 986 987 924
4 926 927 990 989
4 954 955 991 953
4 955 956 992 991
4 956 957 997 992
4 957 958 996 997
4 959 960 996 958
4 960 961 995 996
4 961 962 993 995
4 962 963 994 993
4 972 974 998 971
4 974 975 1008 998
4 975 976 1007 1008
4 976 977 999 1007
4 978 979 999 977
4 979 980 1000 999
4 980 981 1001 1000
4 981 982 1002 1001
4 982 964 965 1002
4 951 952 1004 1003
4 953 991 1004 952
4 991 992 1003 1004
4 965 966 1001 1002
4 966 967 1005 1001
4 934 935 1011 1010
4 936 983 1011 935
4 983 984 1010 1011
4 1008 970 971 998
4 1006 1007 999 1000
4 1000 1001 1005 1006
4 514 398 454 1012
4 1012 454 455 577
4 576 514 1012 577
4 575 453 515 1013
4 1013 515 516 641
4 640 575 1013 641
4 771 687 688 689
4 859 932 858 770
4 848 754 755 756
4 949 995 993 847
4 987 988 923 924
4 988 989 922 923
4 934 1010 1014 933
4 1010 984 1009 1014
4 1014 1009 973 931
4 933 1014 931 932
4 945 876 877 1015
4 1015 877 878 947
4 946 945 1015 947
4 951 1003 1016 950
4 1003 992 997 1016
4 1016 997 996 995
4 950 1016 995 949
4 948 844 845 1017
4 1017 845 846 994
4 963 948 1017 994
4 969 1005 967 968
4 970 1008 1007 1006
4 970 1006 1005 969
4 941 942 1018 973
4 942 943 1019 1018
4 1018 1019 1021 1020
4 973 1018 1020 931
4 931 1020 858 932
4 1020 1021 857 858

CELL_TYPES 1020
9
9
9
9
9
9
9
9
9
9
9
9
9
9
9
9
9
9
9
9
9
9
9
9
9
9
9
9
9
9
9
9
9
9
9
9
9
9
9
9
9
9
9
9
9
9
9
9
9
9
9
9
9
9
9
9
9
9
9
9
9
9
9
9
9
9
9
9
9
9
9
9
9
9
9
9
9
9
9
9
9
9
9
9
9
9
9
9
9
9
9
9
9
9
9
9
9
9
9
9
9
9
9
9
9
9
9
9
9
9
9
9
9
9
9
9
9
9
9
9
9
9
9
9
9
9
9
9
9
9
9
9
9
9
9
9
9
9
9
9
9
9
9
9
9
9
9
9
9
9
9
9
9
9
9
9
9
9
9
9
9
9
9
9
9
9
9
9
9
9
9
9
9
9
9
9
9
9
9
9
9
9
9
9
9
9
9
9
9
9
9
9
9
9
9
9
9
9
9
9
9
9
9
9
9
9
9
9
9
9
9
9
9
9
9
9
9
9
9
9
9
9
9
9
9
9
9
9
9
9
9
9
9
9
9
9
9
9
9
9
9
9
9
9
9
9
9
9
9
9
9
9
9
9
9
9
9
9
9
9
9
9
9
9
9
9
9
9
9
9
9
9
9
9
9
9
9
9
9
9
9
9
9
9
9
9
9
9
9
9
9
9
9
9
9
9
9
9
9
9
9
9
9
9
9
9
9
9
9
9
9
9
9
9
9
9
9
9
9
9
9
9
9
9
9
9
9
9
9
9
9
9
9
9
9
9
9
9
9
9
9
9
9
9
9
9
9
9
9
9
9
9
9
9
9
9
9
9
9
9
9
9
9
9
9
9
9
9
9
9
9
9
9
9
9
9
9
9
9
9
9
9
9
9
9
9
9
9
9
9
9
9
9
9
9
9
9
9
9
9
9
9
9
9
9
9
9
9
9
9
9
9
9
9
9
9
9
9
9
9
9
9
9
9
9
9
9
9
9
9
9
9
9
9
9
9
9
9
9
9
9
9
9
9
9
9
9
9
9
9
9
9
9
9
9
9
9
9
9
9
9
9
9
9
9
9
9
9
9
9
9
9
9
9
9
9
9
9
9
9
9
9
9
9
9
9
9
9
9
9
9
9
9
9
9
9
9
9
9
9
9
9
9
9
9
9
9
9
9
9
9
9
9
9
9
9
9
9
9
9
9
9
9
9
9
9
9
9
9
9
9
9
9
9
9
9
9
9
9
9
9
9
9
9
9
9
9
9
9
9
9
9
9
9
9
9
9
9
9
9
9
9
9
9
9
9
9
9
9
9
9
9
9
9
9
9
9
9
9
9
9
9
9
9
9
9
9
9
9
9
9
9
9
9
9
9
9
9
9
9
9
9
9
9
9
9
9
9
9
9
9
9
9
9
9
9
9
9
9
9
9
9
9
9
9
9
9
9
9
9
9
9
9
9
9
9
9
9
9
9
9
9
9
9
9
9
9
9
9
9
9
9
9
9
9
9
9
9
9
9
9
9
9
9
9
9
9
9
9
9
9
9
9
9
9
9
9
9
9
9
9
9
9
9
9
9
9
9
9
9
9
9
9
9
9
9
9
9
9
9
9
9
9
9
9
9
9
9
9
9
9
9
9
9
9
9
9
9
9
9
9
9
9
9
9
9
9
9
9
9
9
9
9
9
9
9
9
9
9
9
9
9
9
9
9
9
9
9
9
9
9
9
9
9
9
9
9
9
9
9
9
9
9
9
9
9
9
9
9
9
9
9
9
9
9
9
9
9
9
9
9
9
9
9
9
9
9
9
9
9
9
9
9
9
9
9
9
9
9
9
9
9
9
9
9
9
9
9
9
9
9
9
9
9
9
9
9
9
9
9
9
9
9
9
9
9
9
9
9
9
9
9
9
9
9
9
9
9
9
9
9
9
9
9
9
9
9
9
9
9
9
9
9
9
9
9
9
9
9
9
9
9
9
9
9
9
9
9
9
9
9
9
9
9
9
9
9
9
9
9
9
9
9
9
9
9
9
9
9
9
9
9
9
9
9
9
9
9
9
9
9
9
9
9
9
9
9
9
9
9
9
9
9
9
9
9
9
9
9
9
9
9
9
9
9
9
9
9
9
9
9
9
9
9
9
9
9
9
9
9
9
9
9
9
9
9
9
9
9
9
9
9
9
9
9
9
9
9
9
9
9
9
9
9
9
9
9
9
9
9
9
9
9
9
9
9
9
9
9
9
9
9
9
9
9
9
9
9
9
9
9
9
9
9
9
9
9
9
9
9
9
9
9
9
9
9
9
9
9
9
9
9
9
9
9
9
9
9
9
9
